D:\school\WTK\thesis\model\3dpredictsim\Results\batch_windlass\Pog_s1_tmt_aCst_d00_k1000_WL30_ig24_pas_GRF.mot
nRows=30
nColumns=19

name D:\school\WTK\thesis\model\3dpredictsim\Results\batch_windlass\Pog_s1_tmt_aCst_d00_k1000_WL30_ig24_pas_GRF.mot
datacolumns 19
datarows 30
range 0.5576998391 0.8811657458
endheader
time 	ground_force_vx	ground_force_vy	ground_force_vz	ground_force_px	ground_force_py	ground_force_pz	1_ground_force_vx	1_ground_force_vy	1_ground_force_vz	1_ground_force_px	1_ground_force_py	1_ground_force_pz	ground_torque_x	ground_torque_y	ground_torque_z	1_ground_torque_x	1_ground_torque_y	1_ground_torque_z
        0.5576998391	       85.0015305492	      442.1729443015	        4.3490312750	        0.3755074217	        0.0000000000	        0.0315965241	      -79.5253308748	       67.5378879612	      -31.7857213950	        0.8616378263	        0.0000000000	       -0.0387632687	        0.0000000000	        0.0000000000	        0.0000000000	        0.0000000000	        0.0000000000	        0.0000000000	
        0.5688538359	       61.6639300725	      347.4668223214	       11.1116290258	        0.3813402003	        0.0000000000	        0.0294249954	     -122.6963806576	      145.9707378314	      -78.5421492554	        0.8686817408	        0.0000000000	       -0.0365614499	        0.0000000000	        0.0000000000	        0.0000000000	        0.0000000000	        0.0000000000	        0.0000000000	
        0.5800078326	       31.4061653350	      241.8626072256	       11.8744104511	        0.3914549262	        0.0000000000	        0.0247120575	      -52.6699815414	      293.3801325377	      -30.7442395549	        0.8743786524	        0.0000000000	       -0.0341066592	        0.0000000000	        0.0000000000	        0.0000000000	        0.0000000000	        0.0000000000	        0.0000000000	
        0.5911618294	       12.0664869775	      161.2432342957	       10.3723111463	        0.4052743025	        0.0000000000	        0.0170984807	      -46.8510604029	      464.1755432915	       -3.4177489371	        0.8789454088	        0.0000000000	       -0.0344660196	        0.0000000000	        0.0000000000	        0.0000000000	        0.0000000000	        0.0000000000	        0.0000000000	
        0.6023158262	        0.8391004140	      129.4319385711	        8.9416516558	        0.4050962541	        0.0000000000	        0.0170161168	      -72.5401565185	      670.7079199684	        8.1671823164	        0.8873344864	        0.0000000000	       -0.0369421944	        0.0000000000	        0.0000000000	        0.0000000000	        0.0000000000	        0.0000000000	        0.0000000000	
        0.6134698230	       -3.6248493507	       86.1013370566	        8.0514169350	        0.4053565501	        0.0000000000	        0.0170729557	      -95.7289610940	      797.3504954715	       14.3696098304	        0.8937937586	        0.0000000000	       -0.0388209759	        0.0000000000	        0.0000000000	        0.0000000000	        0.0000000000	        0.0000000000	        0.0000000000	
        0.6246238198	      -10.5715838328	       36.1322896989	        5.0178696791	        0.4045843710	        0.0000000000	        0.0171298749	     -106.7568026134	      848.4777980661	       16.7212788596	        0.8989777264	        0.0000000000	       -0.0401913320	        0.0000000000	        0.0000000000	        0.0000000000	        0.0000000000	        0.0000000000	        0.0000000000	
        0.6357778166	        0.1425520908	       -0.1442321141	       -0.0006876060	        0.0000000000	        0.0000000000	        0.0000000000	     -114.4348519068	      866.8801258651	       16.4876261154	        0.9033153606	        0.0000000000	       -0.0410714566	        0.0000000000	        0.0000000000	        0.0000000000	        0.0000000000	        0.0000000000	        0.0000000000	
        0.6469318133	        0.0001364903	       -0.0001149678	        0.0000088740	        0.0000000000	        0.0000000000	        0.0000000000	     -107.5974805267	      864.6673029914	       16.1073708217	        0.9071788122	        0.0000000000	       -0.0412932808	        0.0000000000	        0.0000000000	        0.0000000000	        0.0000000000	        0.0000000000	        0.0000000000	
        0.6580858101	        0.0000347384	       -0.0000255656	        0.0000027147	        0.0000000000	        0.0000000000	        0.0000000000	      -95.7006327856	      834.9420284195	       16.8052030576	        0.9115143314	        0.0000000000	       -0.0413248332	        0.0000000000	        0.0000000000	        0.0000000000	        0.0000000000	        0.0000000000	        0.0000000000	
        0.6692398069	        0.0001194021	       -0.0000789669	        0.0000101396	        0.0000000000	        0.0000000000	        0.0000000000	      -83.6345440721	      795.1401735607	       16.7811476727	        0.9162194049	        0.0000000000	       -0.0412261684	        0.0000000000	        0.0000000000	        0.0000000000	        0.0000000000	        0.0000000000	        0.0000000000	
        0.6803938037	        0.0036492335	       -0.0022367826	        0.0003114834	        0.0000000000	        0.0000000000	        0.0000000000	      -71.4452057270	      749.7460457730	       16.5208491187	        0.9205396767	        0.0000000000	       -0.0411167506	        0.0000000000	        0.0000000000	        0.0000000000	        0.0000000000	        0.0000000000	        0.0000000000	
        0.6915478005	       -0.0220065409	        0.0126578315	       -0.0018646352	        0.0000000000	        0.0000000000	        0.0000000000	      -60.0144563726	      706.7357233936	       16.5254418220	        0.9244049641	        0.0000000000	       -0.0410797313	        0.0000000000	        0.0000000000	        0.0000000000	        0.0000000000	        0.0000000000	        0.0000000000	
        0.7027017972	       -0.0185393196	        0.0100477389	       -0.0015846817	        0.0000000000	        0.0000000000	        0.0000000000	      -49.6978496194	      671.0232253070	       16.9629952673	        0.9280923988	        0.0000000000	       -0.0411089846	        0.0000000000	        0.0000000000	        0.0000000000	        0.0000000000	        0.0000000000	        0.0000000000	
        0.7138557940	       -0.0113170041	        0.0057932656	       -0.0009932010	        0.0000000000	        0.0000000000	        0.0000000000	      -40.6543590940	      642.8578298520	       17.6043469060	        0.9318451501	        0.0000000000	       -0.0411843412	        0.0000000000	        0.0000000000	        0.0000000000	        0.0000000000	        0.0000000000	        0.0000000000	
        0.7250097908	       -0.0083221796	        0.0040409754	       -0.0007557323	        0.0000000000	        0.0000000000	        0.0000000000	      -33.1639758919	      620.8685318829	       18.4154395026	        0.9357280640	        0.0000000000	       -0.0412824571	        0.0000000000	        0.0000000000	        0.0000000000	        0.0000000000	        0.0000000000	        0.0000000000	
        0.7361637876	       -0.0080874162	        0.0037474593	       -0.0007569866	        0.0000000000	        0.0000000000	        0.0000000000	      -26.9125511848	      603.9138978004	       19.0301933967	        0.9397672291	        0.0000000000	       -0.0413901362	        0.0000000000	        0.0000000000	        0.0000000000	        0.0000000000	        0.0000000000	        0.0000000000	
        0.7473177844	       -0.0103941008	        0.0046275019	       -0.0009946318	        0.0000000000	        0.0000000000	        0.0000000000	      -21.8722037250	      591.6481524110	       19.3607356874	        0.9441707871	        0.0000000000	       -0.0414836327	        0.0000000000	        0.0000000000	        0.0000000000	        0.0000000000	        0.0000000000	        0.0000000000	
        0.7584717812	       -0.0169719670	        0.0073066758	       -0.0016451128	        0.0000000000	        0.0000000000	        0.0000000000	      -19.1969236902	      584.2698046160	       19.3898823873	        0.9488791829	        0.0000000000	       -0.0415360119	        0.0000000000	        0.0000000000	        0.0000000000	        0.0000000000	        0.0000000000	        0.0000000000	
        0.7696257779	       -0.0329825267	        0.0138047582	       -0.0032124563	        0.0000000000	        0.0000000000	        0.0000000000	      -17.0841150651	      580.9821707254	       19.3016329169	        0.9538758663	        0.0000000000	       -0.0415323705	        0.0000000000	        0.0000000000	        0.0000000000	        0.0000000000	        0.0000000000	        0.0000000000	
        0.7807797747	       -0.0704982661	        0.0288068101	       -0.0068526150	        0.0000000000	        0.0000000000	        0.0000000000	      -15.3810795719	      579.8493368827	       19.1944109785	        0.9591215312	        0.0000000000	       -0.0414662630	        0.0000000000	        0.0000000000	        0.0000000000	        0.0000000000	        0.0000000000	        0.0000000000	
        0.7919337715	       -0.1526157256	        0.0610850284	       -0.0147598131	        0.0000000000	        0.0000000000	        0.0000000000	      -13.8349769131	      579.6019775969	       18.9451635623	        0.9644450639	        0.0000000000	       -0.0413535168	        0.0000000000	        0.0000000000	        0.0000000000	        0.0000000000	        0.0000000000	        0.0000000000	
        0.8030877683	       -0.3090177255	        0.1215216802	       -0.0296499188	        0.0000000000	        0.0000000000	        0.0000000000	      -11.9210274510	      579.5793663891	       18.7358887151	        0.9698968012	        0.0000000000	       -0.0412019797	        0.0000000000	        0.0000000000	        0.0000000000	        0.0000000000	        0.0000000000	        0.0000000000	
        0.8142417651	       -0.5517327864	        0.2138668611	       -0.0523318575	        0.0000000000	        0.0000000000	        0.0000000000	       -9.8272254355	      578.8330334909	       18.4675616736	        0.9754050590	        0.0000000000	       -0.0410207534	        0.0000000000	        0.0000000000	        0.0000000000	        0.0000000000	        0.0000000000	        0.0000000000	
        0.8253957618	       -0.8450999617	        0.3240312813	       -0.0788304602	        0.0000000000	        0.0000000000	        0.0000000000	       -7.6012774237	      576.7175851569	       18.2358672803	        0.9808791758	        0.0000000000	       -0.0408213054	        0.0000000000	        0.0000000000	        0.0000000000	        0.0000000000	        0.0000000000	        0.0000000000	
        0.8365497586	       -1.1130134675	        0.4235014701	       -0.1012946306	        0.0000000000	        0.0000000000	        0.0000000000	       -5.0103222277	      573.0299970687	       17.8550235938	        0.9863255918	        0.0000000000	       -0.0406094927	        0.0000000000	        0.0000000000	        0.0000000000	        0.0000000000	        0.0000000000	        0.0000000000	
        0.8477037554	       -1.2878340412	        0.4874501037	       -0.1130487605	        0.0000000000	        0.0000000000	        0.0000000000	       -1.8553596911	      567.9092276194	       16.9134443361	        0.9918227473	        0.0000000000	       -0.0403823061	        0.0000000000	        0.0000000000	        0.0000000000	        0.0000000000	        0.0000000000	        0.0000000000	
        0.8588577522	       -1.3472843292	        0.5079752237	       -0.1120270630	        0.0000000000	        0.0000000000	        0.0000000000	        2.1312829343	      561.4021455784	       15.3713376114	        0.9973841746	        0.0000000000	       -0.0401361495	        0.0000000000	        0.0000000000	        0.0000000000	        0.0000000000	        0.0000000000	        0.0000000000	
        0.8700117490	       -1.3056385043	        0.4906940775	       -0.1001171577	        0.0000000000	        0.0000000000	        0.0000000000	        6.2826785361	      554.8614036586	       13.3267522860	        1.0030632672	        0.0000000000	       -0.0398610811	        0.0000000000	        0.0000000000	        0.0000000000	        0.0000000000	        0.0000000000	        0.0000000000	
        0.8811657458	       -1.1820055839	        0.4429868168	       -0.0807858745	        0.0000000000	        0.0000000000	        0.0000000000	        9.7986700738	      549.3030698760	       11.1344508187	        1.0087387421	        0.0000000000	       -0.0395573976	        0.0000000000	        0.0000000000	        0.0000000000	        0.0000000000	        0.0000000000	        0.0000000000	
